<svg width="239" height="300" viewBox="0 0 239 300" fill="none" xmlns="http://www.w3.org/2000/svg">
<path fill-rule="evenodd" clip-rule="evenodd" d="M112.305 0.0367358C76.0699 0.603427 40.3988 7.46501 19.7506 17.8409C10.8925 22.2918 4.04507 28.1518 1.42797 33.5215L0 36.4511V98.796V161.141L0.936082 166.025C3.7849 180.891 8.85724 195.687 16.2514 210.701C21.2262 220.802 23.8107 225.314 29.7024 234.181C50.2147 265.053 77.236 286.665 107.913 296.735C110.904 297.716 114.782 298.853 116.531 299.26L119.712 300L125.106 298.451C143.3 293.226 158.824 285.138 174.131 272.911C180.992 267.431 193.721 254.586 199.263 247.552C218.907 222.616 232.444 193.853 237.855 165.548C238.775 160.732 238.778 160.577 238.923 99.9218C239.088 31.3593 239.306 36.2252 235.847 31.1133C230.12 22.6502 216.362 15.0763 196.461 9.43206C178.177 4.24621 154.657 0.87544 133.009 0.338972C128.178 0.219337 122.814 0.0824918 121.088 0.0350576C119.363 -0.0123766 115.41 -0.011538 112.305 0.0367358ZM75.8428 61.4229C85.1446 64.1018 92.151 69.2587 100.225 79.3689C105.433 85.8909 105.794 86.5789 105.792 89.9896C105.788 98.4476 96.3241 102.832 89.687 97.4502C89.3248 97.1563 87.4874 94.6041 85.6043 91.7786C79.5486 82.6939 75.2702 78.4706 69.0974 75.4835C59.711 70.9412 46.9288 73.5526 31.7218 83.1188C29.385 84.5892 27.3514 85.7919 27.2024 85.7919C26.6938 85.7919 31.9598 78.4492 34.5945 75.4852C41.8368 67.3362 48.7888 63.0151 57.9301 60.9804C62.7138 59.9155 71.3506 60.1287 75.8428 61.4229ZM182.783 61.435C190.056 63.3891 196.916 67.7505 203.027 74.3048C206.058 77.5564 211.737 85.2201 211.372 85.5669C211.291 85.6433 209.264 84.5015 206.867 83.0293C198.404 77.833 190.341 74.581 183.463 73.5912C171.823 71.9159 162.849 77.1307 153.74 90.8619C151.837 93.7297 149.877 96.5195 149.383 97.0615C146.886 99.8026 141.803 100.658 138.418 98.9064C133.849 96.5426 131.695 91.3047 133.364 86.6205C134.102 84.5523 141.207 75.722 145.21 71.8995C151.556 65.8401 157.696 62.4677 165.425 60.7966C169.399 59.9377 178.448 60.2702 182.783 61.435ZM70.2472 101.508C75.1727 102.773 80.1944 105.18 83.6146 107.915L86.0857 109.892L84.0329 111.724C81.4915 113.993 74.7235 117.375 70.269 118.601C67.4164 119.386 65.8433 119.522 59.6031 119.522C53.4094 119.522 51.7686 119.382 48.9373 118.614C44.5455 117.422 37.7528 114.016 35.1562 111.704L33.0866 109.862L35.5745 107.897C40.1215 104.307 46.7619 101.577 53.5738 100.499C57.7757 99.8336 65.5618 100.305 70.2472 101.508ZM189.248 101.325C195.16 102.774 205.16 108.225 205.16 110C205.16 111.171 198.32 115.598 194.106 117.154C187.391 119.634 178.769 120.432 171.826 119.216C165.168 118.05 158.446 115.029 153.922 111.169L152.668 110.098L154.529 108.413C158.411 104.897 165.524 101.768 172.117 100.675C176.845 99.892 184.599 100.186 189.248 101.325ZM79.452 193.253H92.8621L102.685 183.389L112.507 173.524H119.206H125.905L135.728 183.389L145.55 193.253H159.087H172.624L191.297 177.66C201.567 169.084 210.332 161.764 210.774 161.394C211.853 160.491 213.078 158.461 195.03 187.482L179.172 212.983H155.886H132.6L126.008 206.376L119.415 199.769L112.823 206.376L106.23 212.983L82.8124 212.965L59.394 212.947L43.4998 187.357C34.758 173.283 27.5362 161.559 27.4513 161.304C27.3664 161.049 36.0145 168.133 46.6695 177.047L66.0419 193.253H79.452ZM132.382 256.529V273.21L125.799 279.827L119.216 286.443L112.624 279.836L106.031 273.229V256.819C106.031 247.793 106.156 240.282 106.31 240.128C106.463 239.974 112.392 239.848 119.485 239.848H132.382V256.529Z" fill="black"/>
</svg>
