<svg width="218" height="300" viewBox="0 0 218 300" fill="none" xmlns="http://www.w3.org/2000/svg">
<path fill-rule="evenodd" clip-rule="evenodd" d="M95.2454 10.4915L86.4718 20.9829L87.0304 61.7386L87.587 102.496H109.151H130.716L131.272 61.7386L131.831 20.9829L123.057 10.4915L114.286 0L113.259 32.7566C112.402 60.0455 111.719 65.5111 109.151 65.5111C106.584 65.5111 105.9 60.0455 105.044 32.7566L104.017 0L95.2454 10.4915ZM60.7466 44.8651C44.1235 53.2587 27.0014 67.3254 27.0014 72.5896C27.0014 78.5566 49.8083 92.1733 69.6701 98.0642L80.5057 101.28L79.9388 70.2082C79.5794 50.4601 78.571 38.8715 77.1765 38.4071C75.9669 38.0064 68.5734 40.9118 60.7466 44.8651ZM138.861 40.2933C138.269 41.8364 138.043 56.123 138.358 72.0451L138.931 100.99L151.261 97.2012C167.482 92.2164 190.087 78.5278 190.897 73.1999C191.671 68.1062 176.572 54.7217 160.495 46.2459C145.248 38.2098 140.194 36.8188 138.861 40.2933ZM15.0219 87.5995C9.53224 96.5375 2.35644 118.332 2.35644 126.06V132.29H41.3777H80.3989V120.229V108.167L70.6436 105.517C60.3522 102.72 38.3977 92.2308 28.0283 85.1543C20.0433 79.7031 19.8462 79.7401 15.0219 87.5995ZM190.274 85.1543C179.905 92.2308 157.95 102.72 147.659 105.517L137.904 108.167V117.317C137.904 128.519 133.096 128.622 132.145 117.44L131.519 110.099H109.04H86.5601V121.194V132.29H151.253H215.946V126.06C215.946 114.473 202.447 80.8887 197.808 80.936C197.054 80.9421 193.663 82.8407 190.274 85.1543ZM1.67254 139.825C-2.37539 143.872 0.990704 151.066 11.05 159.869C16.9606 165.042 22.5058 169.275 23.3725 169.275C24.2391 169.275 24.9477 162.34 24.9477 153.865V138.454H13.995C7.96934 138.454 2.42422 139.071 1.67254 139.825ZM31.1089 156.62V174.786L40.8642 179.999C51.4985 185.68 74.3896 193.932 79.5178 193.932C81.284 193.932 85.7201 190.759 89.3758 186.88C100.994 174.556 116.409 174.535 128.346 186.831C132.137 190.737 136.618 193.932 138.302 193.932C142.948 193.932 162.52 186.86 175.574 180.465L187.194 174.772V156.614V138.454H109.151H31.1089V156.62ZM193.355 153.834C193.355 171.62 193.425 171.636 209.382 157.888C216.271 151.954 218.086 149.079 217.597 144.877C217.014 139.835 216.199 139.44 205.164 138.865L193.355 138.249V153.834ZM10.6721 171.593C10.7255 173.144 13.7322 180.169 17.3529 187.209C23.4916 199.143 25.1572 200.706 42.1232 210.44C52.129 216.179 60.4755 220.592 60.6726 220.245C60.8698 219.9 64.3961 215.383 68.5077 210.212L75.9854 200.807L62.2746 196.338C49.7857 192.268 26.7919 180.428 15.1924 172.094C11.5346 169.466 10.592 169.361 10.6721 171.593ZM197.372 175.632C184.136 184.593 167.348 192.892 153.956 197.096L142.28 200.762L149.777 210.189C153.898 215.373 157.439 219.906 157.644 220.259C157.85 220.615 166.254 216.218 176.319 210.491C194.137 200.355 194.807 199.7 201.556 185.742C205.369 177.856 208.048 170.96 207.507 170.42C206.967 169.879 202.406 172.226 197.372 175.632ZM0.302695 207.781V244.234L13.9396 257.094C21.4419 264.169 28.8354 269.957 30.3696 269.957C32.4315 269.957 33.1627 266.534 33.1627 256.875C33.1627 243.887 33.1031 243.751 24.9477 238.353L16.7327 232.914V217.646C16.7327 204.621 15.6935 200.098 9.66162 186.853C5.77182 178.316 2.07508 171.33 1.44663 171.33C0.818184 171.33 0.302695 187.733 0.302695 207.781ZM208.641 186.853C202.609 200.098 201.57 204.621 201.57 217.646V232.914L193.355 238.353C185.2 243.751 185.14 243.887 185.14 256.875C185.14 266.534 185.871 269.957 187.933 269.957C189.467 269.957 196.861 264.169 204.363 257.094L218 244.234V207.781C218 187.733 217.484 171.33 216.856 171.33C216.228 171.33 212.531 178.316 208.641 186.853ZM105.557 185.018C103.656 185.787 102.99 194.435 102.99 218.342V250.63L94.6991 258.73L86.4102 266.828L86.9976 283.29L87.587 299.751H109.151H130.716L131.305 283.29L131.892 266.828L123.604 258.73L115.313 250.63V218.391C115.313 190.889 114.836 185.97 112.064 184.905C110.277 184.219 108.661 183.732 108.47 183.821C108.281 183.909 106.97 184.449 105.557 185.018ZM82.3274 204.545C76.0449 211.703 70.0377 218.948 68.978 220.643C67.9162 222.339 66.5874 237.369 66.0226 254.045C64.6877 293.441 61.2312 294.932 59.8614 256.706L58.8345 228.043L41.7165 218.18C32.3021 212.753 24.4466 208.313 24.2597 208.313C24.0728 208.311 24.233 213.327 24.615 219.46C25.2619 229.849 25.8595 230.975 33.3434 235.931L41.3777 241.248V261.592V281.936L51.133 289.078C60.7445 296.116 75.2809 301.645 78.6655 299.551C79.6184 298.964 80.3989 290.484 80.3989 280.709C80.3989 263.144 80.4831 262.852 87.6466 255.512L94.8963 248.086L94.3212 219.807L93.7482 191.528L82.3274 204.545ZM123.536 219.727L123.528 248.604L130.716 255.574C137.852 262.494 137.904 262.675 137.904 280.512C137.904 290.395 138.75 299.005 139.785 299.644C140.82 300.285 144.055 299.899 146.973 298.789L152.28 296.771L152.208 261.276C152.159 237.293 151.325 224.381 149.641 221.463C148.269 219.09 141.837 211.231 135.345 203.998L123.546 190.85L123.536 219.727ZM175.898 218.35L159.468 228.032L158.897 258.594C158.577 275.844 159.17 290.001 160.265 291.096C161.479 292.31 164.952 290.936 169.562 287.416L176.925 281.798V261.522V241.248L184.959 235.931C192.443 230.975 193.041 229.849 193.688 219.46C194.07 213.327 193.92 208.391 193.355 208.49C192.79 208.588 184.935 213.025 175.898 218.35Z" fill="black"/>
</svg>
